<svg xmlns="http://www.w3.org/2000/svg" version="1.1" xmlns:xlink="http://www.w3.org/1999/xlink" xmlns:svgjs="http://svgjs.com/svgjs" width="1440" height="560" preserveAspectRatio="none" viewBox="0 0 1440 560"><g mask="url(&quot;#SvgjsMask1086&quot;)" fill="none"><rect width="1440" height="560" x="0" y="0" fill="#0e2a47"></rect><path d="M-80.55 359.13L-80.55 359.13" stroke="#132e65" stroke-width="1.5"></path><path d="M-80.55 359.13L37.92 347.15" stroke="#132e65" stroke-width="1.5"></path><path d="M-80.55 359.13L-98.82 501.71" stroke="#132e65" stroke-width="1.5"></path><path d="M-80.55 359.13L85.77 488.51" stroke="#132e65" stroke-width="1.5"></path><path d="M-80.55 359.13L236.8 391.48" stroke="#132e65" stroke-width="1.5"></path><path d="M-80.55 359.13L47.16 658.28" stroke="#132e65" stroke-width="1.5"></path><path d="M-98.82 501.71L-98.82 501.71" stroke="#132e65" stroke-width="1.5"></path><path d="M-98.82 501.71L85.77 488.51" stroke="#132e65" stroke-width="1.5"></path><path d="M-54.19 706.22L-54.19 706.22" stroke="#132e65" stroke-width="1.5"></path><path d="M-54.19 706.22L47.16 658.28" stroke="#132e65" stroke-width="1.5"></path><path d="M-54.19 706.22L-98.82 501.71" stroke="#132e65" stroke-width="1.5"></path><path d="M-54.19 706.22L85.77 488.51" stroke="#132e65" stroke-width="1.5"></path><path d="M-54.19 706.22L239.18 677.8" stroke="#132e65" stroke-width="1.5"></path><path d="M-54.19 706.22L-80.55 359.13" stroke="#132e65" stroke-width="1.5"></path><path d="M37.92 347.15L37.92 347.15" stroke="#132e65" stroke-width="1.5"></path><path d="M37.92 347.15L85.77 488.51" stroke="#132e65" stroke-width="1.5"></path><path d="M37.92 347.15L236.8 391.48" stroke="#132e65" stroke-width="1.5"></path><path d="M37.92 347.15L-98.82 501.71" stroke="#132e65" stroke-width="1.5"></path><path d="M37.92 347.15L47.16 658.28" stroke="#132e65" stroke-width="1.5"></path><path d="M37.92 347.15L-54.19 706.22" stroke="#132e65" stroke-width="1.5"></path><path d="M85.77 488.51L85.77 488.51" stroke="#132e65" stroke-width="1.5"></path><path d="M85.77 488.51L47.16 658.28" stroke="#132e65" stroke-width="1.5"></path><path d="M85.77 488.51L236.8 391.48" stroke="#132e65" stroke-width="1.5"></path><path d="M85.77 488.51L239.18 677.8" stroke="#132e65" stroke-width="1.5"></path><path d="M47.16 658.28L47.16 658.28" stroke="#132e65" stroke-width="1.5"></path><path d="M236.8 391.48L236.8 391.48" stroke="#132e65" stroke-width="1.5"></path><path d="M236.8 391.48L348.15 559.41" stroke="#132e65" stroke-width="1.5"></path><path d="M236.8 391.48L506.89 400.34" stroke="#132e65" stroke-width="1.5"></path><path d="M236.8 391.48L239.18 677.8" stroke="#132e65" stroke-width="1.5"></path><path d="M236.8 391.48L508.69 550.03" stroke="#132e65" stroke-width="1.5"></path><path d="M239.18 677.8L239.18 677.8" stroke="#132e65" stroke-width="1.5"></path><path d="M239.18 677.8L348.15 559.41" stroke="#132e65" stroke-width="1.5"></path><path d="M239.18 677.8L47.16 658.28" stroke="#132e65" stroke-width="1.5"></path><path d="M239.18 677.8L508.69 550.03" stroke="#132e65" stroke-width="1.5"></path><path d="M348.15 559.41L348.15 559.41" stroke="#132e65" stroke-width="1.5"></path><path d="M348.15 559.41L508.69 550.03" stroke="#132e65" stroke-width="1.5"></path><path d="M506.89 400.34L506.89 400.34" stroke="#132e65" stroke-width="1.5"></path><path d="M506.89 400.34L508.69 550.03" stroke="#132e65" stroke-width="1.5"></path><path d="M506.89 400.34L666.15 519.5" stroke="#132e65" stroke-width="1.5"></path><path d="M506.89 400.34L640.52 248.17" stroke="#132e65" stroke-width="1.5"></path><path d="M506.89 400.34L709.43 341.03" stroke="#132e65" stroke-width="1.5"></path><path d="M508.69 550.03L508.69 550.03" stroke="#132e65" stroke-width="1.5"></path><path d="M508.69 550.03L666.15 519.5" stroke="#132e65" stroke-width="1.5"></path><path d="M640.52 248.17L640.52 248.17" stroke="#132e65" stroke-width="1.5"></path><path d="M640.52 248.17L709.43 341.03" stroke="#132e65" stroke-width="1.5"></path><path d="M640.52 248.17L826.62 261.26" stroke="#132e65" stroke-width="1.5"></path><path d="M640.52 248.17L827.51 392.16" stroke="#132e65" stroke-width="1.5"></path><path d="M709.43 341.03L709.43 341.03" stroke="#132e65" stroke-width="1.5"></path><path d="M709.43 341.03L827.51 392.16" stroke="#132e65" stroke-width="1.5"></path><path d="M666.15 519.5L666.15 519.5" stroke="#132e65" stroke-width="1.5"></path><path d="M666.15 519.5L674.44 651.4" stroke="#132e65" stroke-width="1.5"></path><path d="M666.15 519.5L803.55 540.16" stroke="#132e65" stroke-width="1.5"></path><path d="M666.15 519.5L709.43 341.03" stroke="#132e65" stroke-width="1.5"></path><path d="M674.44 651.4L674.44 651.4" stroke="#132e65" stroke-width="1.5"></path><path d="M674.44 651.4L803.55 540.16" stroke="#132e65" stroke-width="1.5"></path><path d="M674.44 651.4L847.58 674.24" stroke="#132e65" stroke-width="1.5"></path><path d="M674.44 651.4L508.69 550.03" stroke="#132e65" stroke-width="1.5"></path><path d="M674.44 651.4L965.34 703.38" stroke="#132e65" stroke-width="1.5"></path><path d="M674.44 651.4L827.51 392.16" stroke="#132e65" stroke-width="1.5"></path><path d="M856.23 98.63L856.23 98.63" stroke="#132e65" stroke-width="1.5"></path><path d="M856.23 98.63L1012.17 82.59" stroke="#132e65" stroke-width="1.5"></path><path d="M856.23 98.63L826.62 261.26" stroke="#132e65" stroke-width="1.5"></path><path d="M856.23 98.63L944.95 -73.44" stroke="#132e65" stroke-width="1.5"></path><path d="M856.23 98.63L985.5 261.18" stroke="#132e65" stroke-width="1.5"></path><path d="M826.62 261.26L826.62 261.26" stroke="#132e65" stroke-width="1.5"></path><path d="M826.62 261.26L827.51 392.16" stroke="#132e65" stroke-width="1.5"></path><path d="M826.62 261.26L709.43 341.03" stroke="#132e65" stroke-width="1.5"></path><path d="M826.62 261.26L985.5 261.18" stroke="#132e65" stroke-width="1.5"></path><path d="M826.62 261.26L991.94 338.94" stroke="#132e65" stroke-width="1.5"></path><path d="M827.51 392.16L827.51 392.16" stroke="#132e65" stroke-width="1.5"></path><path d="M827.51 392.16L803.55 540.16" stroke="#132e65" stroke-width="1.5"></path><path d="M803.55 540.16L803.55 540.16" stroke="#132e65" stroke-width="1.5"></path><path d="M803.55 540.16L847.58 674.24" stroke="#132e65" stroke-width="1.5"></path><path d="M847.58 674.24L847.58 674.24" stroke="#132e65" stroke-width="1.5"></path><path d="M847.58 674.24L965.34 703.38" stroke="#132e65" stroke-width="1.5"></path><path d="M847.58 674.24L972.76 502.79" stroke="#132e65" stroke-width="1.5"></path><path d="M944.95 -73.44L944.95 -73.44" stroke="#132e65" stroke-width="1.5"></path><path d="M944.95 -73.44L1012.17 82.59" stroke="#132e65" stroke-width="1.5"></path><path d="M944.95 -73.44L1149.8 -66.99" stroke="#132e65" stroke-width="1.5"></path><path d="M944.95 -73.44L1153.09 93.37" stroke="#132e65" stroke-width="1.5"></path><path d="M944.95 -73.44L1091.27 214.94" stroke="#132e65" stroke-width="1.5"></path><path d="M944.95 -73.44L1277.13 -70.23" stroke="#132e65" stroke-width="1.5"></path><path d="M1012.17 82.59L1012.17 82.59" stroke="#132e65" stroke-width="1.5"></path><path d="M1012.17 82.59L1153.09 93.37" stroke="#132e65" stroke-width="1.5"></path><path d="M1012.17 82.59L1091.27 214.94" stroke="#132e65" stroke-width="1.5"></path><path d="M985.5 261.18L985.5 261.18" stroke="#132e65" stroke-width="1.5"></path><path d="M985.5 261.18L991.94 338.94" stroke="#132e65" stroke-width="1.5"></path><path d="M985.5 261.18L1091.27 214.94" stroke="#132e65" stroke-width="1.5"></path><path d="M991.94 338.94L991.94 338.94" stroke="#132e65" stroke-width="1.5"></path><path d="M991.94 338.94L1091.27 214.94" stroke="#132e65" stroke-width="1.5"></path><path d="M991.94 338.94L972.76 502.79" stroke="#132e65" stroke-width="1.5"></path><path d="M991.94 338.94L1159.77 344.58" stroke="#132e65" stroke-width="1.5"></path><path d="M991.94 338.94L827.51 392.16" stroke="#132e65" stroke-width="1.5"></path><path d="M972.76 502.79L972.76 502.79" stroke="#132e65" stroke-width="1.5"></path><path d="M972.76 502.79L1124.55 502.39" stroke="#132e65" stroke-width="1.5"></path><path d="M965.34 703.38L965.34 703.38" stroke="#132e65" stroke-width="1.5"></path><path d="M965.34 703.38L1102.99 652.15" stroke="#132e65" stroke-width="1.5"></path><path d="M1149.8 -66.99L1149.8 -66.99" stroke="#132e65" stroke-width="1.5"></path><path d="M1149.8 -66.99L1277.13 -70.23" stroke="#132e65" stroke-width="1.5"></path><path d="M1149.8 -66.99L1153.09 93.37" stroke="#132e65" stroke-width="1.5"></path><path d="M1149.8 -66.99L1012.17 82.59" stroke="#132e65" stroke-width="1.5"></path><path d="M1153.09 93.37L1153.09 93.37" stroke="#132e65" stroke-width="1.5"></path><path d="M1153.09 93.37L1091.27 214.94" stroke="#132e65" stroke-width="1.5"></path><path d="M1153.09 93.37L1292.81 80.61" stroke="#132e65" stroke-width="1.5"></path><path d="M1153.09 93.37L1273.28 196.11" stroke="#132e65" stroke-width="1.5"></path><path d="M1091.27 214.94L1091.27 214.94" stroke="#132e65" stroke-width="1.5"></path><path d="M1091.27 214.94L1159.77 344.58" stroke="#132e65" stroke-width="1.5"></path><path d="M1091.27 214.94L1273.28 196.11" stroke="#132e65" stroke-width="1.5"></path><path d="M1159.77 344.58L1159.77 344.58" stroke="#132e65" stroke-width="1.5"></path><path d="M1159.77 344.58L1252.6 388.04" stroke="#132e65" stroke-width="1.5"></path><path d="M1159.77 344.58L1124.55 502.39" stroke="#132e65" stroke-width="1.5"></path><path d="M1124.55 502.39L1124.55 502.39" stroke="#132e65" stroke-width="1.5"></path><path d="M1124.55 502.39L1102.99 652.15" stroke="#132e65" stroke-width="1.5"></path><path d="M1102.99 652.15L1102.99 652.15" stroke="#132e65" stroke-width="1.5"></path><path d="M1102.99 652.15L1288.7 662.74" stroke="#132e65" stroke-width="1.5"></path><path d="M1102.99 652.15L972.76 502.79" stroke="#132e65" stroke-width="1.5"></path><path d="M1277.13 -70.23L1277.13 -70.23" stroke="#132e65" stroke-width="1.5"></path><path d="M1277.13 -70.23L1292.81 80.61" stroke="#132e65" stroke-width="1.5"></path><path d="M1292.81 80.61L1292.81 80.61" stroke="#132e65" stroke-width="1.5"></path><path d="M1292.81 80.61L1273.28 196.11" stroke="#132e65" stroke-width="1.5"></path><path d="M1292.81 80.61L1457.46 78.76" stroke="#132e65" stroke-width="1.5"></path><path d="M1292.81 80.61L1445.71 -47.17" stroke="#132e65" stroke-width="1.5"></path><path d="M1292.81 80.61L1149.8 -66.99" stroke="#132e65" stroke-width="1.5"></path><path d="M1273.28 196.11L1273.28 196.11" stroke="#132e65" stroke-width="1.5"></path><path d="M1273.28 196.11L1159.77 344.58" stroke="#132e65" stroke-width="1.5"></path><path d="M1273.28 196.11L1461.51 227.38" stroke="#132e65" stroke-width="1.5"></path><path d="M1273.28 196.11L1252.6 388.04" stroke="#132e65" stroke-width="1.5"></path><path d="M1252.6 388.04L1252.6 388.04" stroke="#132e65" stroke-width="1.5"></path><path d="M1252.6 388.04L1388.9 400.74" stroke="#132e65" stroke-width="1.5"></path><path d="M1252.6 388.04L1124.55 502.39" stroke="#132e65" stroke-width="1.5"></path><path d="M1288.7 662.74L1288.7 662.74" stroke="#132e65" stroke-width="1.5"></path><path d="M1288.7 662.74L1427.13 690.52" stroke="#132e65" stroke-width="1.5"></path><path d="M1288.7 662.74L1124.55 502.39" stroke="#132e65" stroke-width="1.5"></path><path d="M1288.7 662.74L1454.52 493.63" stroke="#132e65" stroke-width="1.5"></path><path d="M1288.7 662.74L1562.53 652.75" stroke="#132e65" stroke-width="1.5"></path><path d="M1288.7 662.74L1252.6 388.04" stroke="#132e65" stroke-width="1.5"></path><path d="M1445.71 -47.17L1445.71 -47.17" stroke="#132e65" stroke-width="1.5"></path><path d="M1445.71 -47.17L1457.46 78.76" stroke="#132e65" stroke-width="1.5"></path><path d="M1445.71 -47.17L1277.13 -70.23" stroke="#132e65" stroke-width="1.5"></path><path d="M1445.71 -47.17L1560.79 96.91" stroke="#132e65" stroke-width="1.5"></path><path d="M1457.46 78.76L1457.46 78.76" stroke="#132e65" stroke-width="1.5"></path><path d="M1457.46 78.76L1560.79 96.91" stroke="#132e65" stroke-width="1.5"></path><path d="M1457.46 78.76L1461.51 227.38" stroke="#132e65" stroke-width="1.5"></path><path d="M1457.46 78.76L1598.34 234.51" stroke="#132e65" stroke-width="1.5"></path><path d="M1457.46 78.76L1273.28 196.11" stroke="#132e65" stroke-width="1.5"></path><path d="M1461.51 227.38L1461.51 227.38" stroke="#132e65" stroke-width="1.5"></path><path d="M1461.51 227.38L1598.34 234.51" stroke="#132e65" stroke-width="1.5"></path><path d="M1388.9 400.74L1388.9 400.74" stroke="#132e65" stroke-width="1.5"></path><path d="M1388.9 400.74L1454.52 493.63" stroke="#132e65" stroke-width="1.5"></path><path d="M1388.9 400.74L1552.58 359.99" stroke="#132e65" stroke-width="1.5"></path><path d="M1388.9 400.74L1461.51 227.38" stroke="#132e65" stroke-width="1.5"></path><path d="M1388.9 400.74L1554.39 490.14" stroke="#132e65" stroke-width="1.5"></path><path d="M1454.52 493.63L1454.52 493.63" stroke="#132e65" stroke-width="1.5"></path><path d="M1454.52 493.63L1554.39 490.14" stroke="#132e65" stroke-width="1.5"></path><path d="M1454.52 493.63L1552.58 359.99" stroke="#132e65" stroke-width="1.5"></path><path d="M1427.13 690.52L1427.13 690.52" stroke="#132e65" stroke-width="1.5"></path><path d="M1427.13 690.52L1562.53 652.75" stroke="#132e65" stroke-width="1.5"></path><path d="M1560.79 96.91L1560.79 96.91" stroke="#132e65" stroke-width="1.5"></path><path d="M1560.79 96.91L1598.34 234.51" stroke="#132e65" stroke-width="1.5"></path><path d="M1598.34 234.51L1598.34 234.51" stroke="#132e65" stroke-width="1.5"></path><path d="M1598.34 234.51L1552.58 359.99" stroke="#132e65" stroke-width="1.5"></path><path d="M1552.58 359.99L1552.58 359.99" stroke="#132e65" stroke-width="1.5"></path><path d="M1552.58 359.99L1554.39 490.14" stroke="#132e65" stroke-width="1.5"></path><path d="M1552.58 359.99L1461.51 227.38" stroke="#132e65" stroke-width="1.5"></path><path d="M1554.39 490.14L1554.39 490.14" stroke="#132e65" stroke-width="1.5"></path><path d="M1554.39 490.14L1562.53 652.75" stroke="#132e65" stroke-width="1.5"></path><path d="M1562.53 652.75L1562.53 652.75" stroke="#132e65" stroke-width="1.5"></path><path d="M1562.53 652.75L1454.52 493.63" stroke="#132e65" stroke-width="1.5"></path><circle r="5" cx="-80.55" cy="359.13" fill="#132e65"></circle><circle r="5" cx="-98.82" cy="501.71" fill="#132e65"></circle><circle r="5" cx="-54.19" cy="706.22" fill="#132e65"></circle><circle r="5" cx="37.92" cy="347.15" fill="#132e65"></circle><circle r="5" cx="85.77" cy="488.51" fill="#132e65"></circle><circle r="5" cx="47.16" cy="658.28" fill="#132e65"></circle><circle r="5" cx="236.8" cy="391.48" fill="#132e65"></circle><circle r="5" cx="239.18" cy="677.8" fill="#132e65"></circle><circle r="5" cx="348.15" cy="559.41" fill="#132e65"></circle><circle r="5" cx="506.89" cy="400.34" fill="#132e65"></circle><circle r="5" cx="508.69" cy="550.03" fill="#132e65"></circle><circle r="5" cx="640.52" cy="248.17" fill="#132e65"></circle><circle r="5" cx="709.43" cy="341.03" fill="#132e65"></circle><circle r="5" cx="666.15" cy="519.5" fill="#132e65"></circle><circle r="5" cx="674.44" cy="651.4" fill="#132e65"></circle><circle r="5" cx="856.23" cy="98.63" fill="#132e65"></circle><circle r="5" cx="826.62" cy="261.26" fill="#132e65"></circle><circle r="5" cx="827.51" cy="392.16" fill="#132e65"></circle><circle r="5" cx="803.55" cy="540.16" fill="#132e65"></circle><circle r="5" cx="847.58" cy="674.24" fill="#132e65"></circle><circle r="5" cx="944.95" cy="-73.44" fill="#132e65"></circle><circle r="5" cx="1012.17" cy="82.59" fill="#132e65"></circle><circle r="5" cx="985.5" cy="261.18" fill="#132e65"></circle><circle r="5" cx="991.94" cy="338.94" fill="#132e65"></circle><circle r="5" cx="972.76" cy="502.79" fill="#132e65"></circle><circle r="5" cx="965.34" cy="703.38" fill="#132e65"></circle><circle r="5" cx="1149.8" cy="-66.99" fill="#132e65"></circle><circle r="5" cx="1153.09" cy="93.37" fill="#132e65"></circle><circle r="5" cx="1091.27" cy="214.94" fill="#132e65"></circle><circle r="5" cx="1159.77" cy="344.58" fill="#132e65"></circle><circle r="5" cx="1124.55" cy="502.39" fill="#132e65"></circle><circle r="5" cx="1102.99" cy="652.15" fill="#132e65"></circle><circle r="5" cx="1277.13" cy="-70.23" fill="#132e65"></circle><circle r="5" cx="1292.81" cy="80.61" fill="#132e65"></circle><circle r="5" cx="1273.28" cy="196.11" fill="#132e65"></circle><circle r="5" cx="1252.6" cy="388.04" fill="#132e65"></circle><circle r="5" cx="1288.7" cy="662.74" fill="#132e65"></circle><circle r="5" cx="1445.71" cy="-47.17" fill="#132e65"></circle><circle r="5" cx="1457.46" cy="78.76" fill="#132e65"></circle><circle r="5" cx="1461.51" cy="227.38" fill="#132e65"></circle><circle r="5" cx="1388.9" cy="400.74" fill="#132e65"></circle><circle r="5" cx="1454.52" cy="493.63" fill="#132e65"></circle><circle r="5" cx="1427.13" cy="690.52" fill="#132e65"></circle><circle r="5" cx="1560.79" cy="96.91" fill="#132e65"></circle><circle r="5" cx="1598.34" cy="234.51" fill="#132e65"></circle><circle r="5" cx="1552.58" cy="359.99" fill="#132e65"></circle><circle r="5" cx="1554.39" cy="490.14" fill="#132e65"></circle><circle r="5" cx="1562.53" cy="652.75" fill="#132e65"></circle><path d="M681.2 489.17L681.2 489.17" stroke="hsl(228.5, 77.2%, 51.5%)" stroke-width="1.5"></path><path d="M681.2 489.17L654.48 644.71" stroke="hsl(228.5, 77.2%, 51.5%)" stroke-width="1.5"></path><path d="M681.2 489.17L824.25 557.22" stroke="hsl(228.5, 77.2%, 51.5%)" stroke-width="1.5"></path><path d="M681.2 489.17L817.17 397.2" stroke="hsl(228.5, 77.2%, 51.5%)" stroke-width="1.5"></path><path d="M824.25 557.22L824.25 557.22" stroke="hsl(228.5, 77.2%, 51.5%)" stroke-width="1.5"></path><path d="M824.25 557.22L836.58 689.29" stroke="hsl(228.5, 77.2%, 51.5%)" stroke-width="1.5"></path><path d="M824.25 557.22L817.17 397.2" stroke="hsl(228.5, 77.2%, 51.5%)" stroke-width="1.5"></path><path d="M824.25 557.22L997.72 509.33" stroke="hsl(228.5, 77.2%, 51.5%)" stroke-width="1.5"></path><path d="M836.58 689.29L836.58 689.29" stroke="hsl(228.5, 77.2%, 51.5%)" stroke-width="1.5"></path><path d="M836.58 689.29L985.53 672.42" stroke="hsl(228.5, 77.2%, 51.5%)" stroke-width="1.5"></path><path d="M836.58 689.29L654.48 644.71" stroke="hsl(228.5, 77.2%, 51.5%)" stroke-width="1.5"></path><path d="M836.58 689.29L997.72 509.33" stroke="hsl(228.5, 77.2%, 51.5%)" stroke-width="1.5"></path><path d="M836.58 689.29L681.2 489.17" stroke="hsl(228.5, 77.2%, 51.5%)" stroke-width="1.5"></path><path d="M1005.44 374.35L1005.44 374.35" stroke="hsl(228.5, 77.2%, 51.5%)" stroke-width="1.5"></path><path d="M1005.44 374.35L1116.99 401.99" stroke="hsl(228.5, 77.2%, 51.5%)" stroke-width="1.5"></path><path d="M1005.44 374.35L997.72 509.33" stroke="hsl(228.5, 77.2%, 51.5%)" stroke-width="1.5"></path><path d="M985.53 672.42L985.53 672.42" stroke="hsl(228.5, 77.2%, 51.5%)" stroke-width="1.5"></path><path d="M985.53 672.42L1117.03 696.78" stroke="hsl(228.5, 77.2%, 51.5%)" stroke-width="1.5"></path><path d="M985.53 672.42L997.72 509.33" stroke="hsl(228.5, 77.2%, 51.5%)" stroke-width="1.5"></path><path d="M985.53 672.42L824.25 557.22" stroke="hsl(228.5, 77.2%, 51.5%)" stroke-width="1.5"></path><path d="M985.53 672.42L1161.62 514.39" stroke="hsl(228.5, 77.2%, 51.5%)" stroke-width="1.5"></path><path d="M1285.87 74.81L1285.87 74.81" stroke="hsl(228.5, 77.2%, 51.5%)" stroke-width="1.5"></path><path d="M1285.87 74.81L1291.8 187.63" stroke="hsl(228.5, 77.2%, 51.5%)" stroke-width="1.5"></path><path d="M1285.87 74.81L1431.42 60.45" stroke="hsl(228.5, 77.2%, 51.5%)" stroke-width="1.5"></path><path d="M1285.87 74.81L1300.53 -89.27" stroke="hsl(228.5, 77.2%, 51.5%)" stroke-width="1.5"></path><path d="M1285.87 74.81L1389.88 233.49" stroke="hsl(228.5, 77.2%, 51.5%)" stroke-width="1.5"></path><path d="M1285.87 74.81L1545.12 54.34" stroke="hsl(228.5, 77.2%, 51.5%)" stroke-width="1.5"></path><path d="M1285.87 74.81L1391.61 359.1" stroke="hsl(228.5, 77.2%, 51.5%)" stroke-width="1.5"></path><path d="M1269.39 690.18L1269.39 690.18" stroke="hsl(228.5, 77.2%, 51.5%)" stroke-width="1.5"></path><path d="M1269.39 690.18L1117.03 696.78" stroke="hsl(228.5, 77.2%, 51.5%)" stroke-width="1.5"></path><path d="M1269.39 690.18L1419.42 645.38" stroke="hsl(228.5, 77.2%, 51.5%)" stroke-width="1.5"></path><path d="M1269.39 690.18L1307.43 520.77" stroke="hsl(228.5, 77.2%, 51.5%)" stroke-width="1.5"></path><path d="M1431.42 60.45L1431.42 60.45" stroke="hsl(228.5, 77.2%, 51.5%)" stroke-width="1.5"></path><path d="M1431.42 60.45L1545.12 54.34" stroke="hsl(228.5, 77.2%, 51.5%)" stroke-width="1.5"></path><path d="M1431.42 60.45L1389.88 233.49" stroke="hsl(228.5, 77.2%, 51.5%)" stroke-width="1.5"></path><path d="M1431.42 60.45L1291.8 187.63" stroke="hsl(228.5, 77.2%, 51.5%)" stroke-width="1.5"></path><path d="M1431.42 60.45L1300.53 -89.27" stroke="hsl(228.5, 77.2%, 51.5%)" stroke-width="1.5"></path><path d="M98.22 525.32L98.22 525.32" stroke="hsl(228.5, 77.2%, 51.5%)" stroke-width="1.5"></path><path d="M98.22 525.32L218.24 545" stroke="hsl(228.5, 77.2%, 51.5%)" stroke-width="1.5"></path><path d="M98.22 525.32L197.75 655.79" stroke="hsl(228.5, 77.2%, 51.5%)" stroke-width="1.5"></path><path d="M98.22 525.32L89.91 694.97" stroke="hsl(228.5, 77.2%, 51.5%)" stroke-width="1.5"></path><path d="M98.22 525.32L389.98 532.45" stroke="hsl(228.5, 77.2%, 51.5%)" stroke-width="1.5"></path><path d="M98.22 525.32L390.84 671.78" stroke="hsl(228.5, 77.2%, 51.5%)" stroke-width="1.5"></path><path d="M98.22 525.32L514.08 501.68" stroke="hsl(228.5, 77.2%, 51.5%)" stroke-width="1.5"></path><path d="M89.91 694.97L89.91 694.97" stroke="hsl(228.5, 77.2%, 51.5%)" stroke-width="1.5"></path><path d="M89.91 694.97L197.75 655.79" stroke="hsl(228.5, 77.2%, 51.5%)" stroke-width="1.5"></path><path d="M89.91 694.97L218.24 545" stroke="hsl(228.5, 77.2%, 51.5%)" stroke-width="1.5"></path><path d="M218.24 545L218.24 545" stroke="hsl(228.5, 77.2%, 51.5%)" stroke-width="1.5"></path><path d="M218.24 545L197.75 655.79" stroke="hsl(228.5, 77.2%, 51.5%)" stroke-width="1.5"></path><path d="M218.24 545L389.98 532.45" stroke="hsl(228.5, 77.2%, 51.5%)" stroke-width="1.5"></path><path d="M218.24 545L390.84 671.78" stroke="hsl(228.5, 77.2%, 51.5%)" stroke-width="1.5"></path><path d="M197.75 655.79L197.75 655.79" stroke="hsl(228.5, 77.2%, 51.5%)" stroke-width="1.5"></path><path d="M389.98 532.45L389.98 532.45" stroke="hsl(228.5, 77.2%, 51.5%)" stroke-width="1.5"></path><path d="M389.98 532.45L514.08 501.68" stroke="hsl(228.5, 77.2%, 51.5%)" stroke-width="1.5"></path><path d="M389.98 532.45L390.84 671.78" stroke="hsl(228.5, 77.2%, 51.5%)" stroke-width="1.5"></path><path d="M390.84 671.78L390.84 671.78" stroke="hsl(228.5, 77.2%, 51.5%)" stroke-width="1.5"></path><path d="M514.08 501.68L514.08 501.68" stroke="hsl(228.5, 77.2%, 51.5%)" stroke-width="1.5"></path><path d="M514.08 501.68L681.2 489.17" stroke="hsl(228.5, 77.2%, 51.5%)" stroke-width="1.5"></path><path d="M514.08 501.68L654.48 644.71" stroke="hsl(228.5, 77.2%, 51.5%)" stroke-width="1.5"></path><path d="M654.48 644.71L654.48 644.71" stroke="hsl(228.5, 77.2%, 51.5%)" stroke-width="1.5"></path><path d="M654.48 644.71L824.25 557.22" stroke="hsl(228.5, 77.2%, 51.5%)" stroke-width="1.5"></path><path d="M817.17 397.2L817.17 397.2" stroke="hsl(228.5, 77.2%, 51.5%)" stroke-width="1.5"></path><path d="M997.72 509.33L997.72 509.33" stroke="hsl(228.5, 77.2%, 51.5%)" stroke-width="1.5"></path><path d="M997.72 509.33L1116.99 401.99" stroke="hsl(228.5, 77.2%, 51.5%)" stroke-width="1.5"></path><path d="M997.72 509.33L1161.62 514.39" stroke="hsl(228.5, 77.2%, 51.5%)" stroke-width="1.5"></path><path d="M997.72 509.33L817.17 397.2" stroke="hsl(228.5, 77.2%, 51.5%)" stroke-width="1.5"></path><path d="M1116.99 401.99L1116.99 401.99" stroke="hsl(228.5, 77.2%, 51.5%)" stroke-width="1.5"></path><path d="M1116.99 401.99L1161.62 514.39" stroke="hsl(228.5, 77.2%, 51.5%)" stroke-width="1.5"></path><path d="M1116.99 401.99L1267.19 403.63" stroke="hsl(228.5, 77.2%, 51.5%)" stroke-width="1.5"></path><path d="M1116.99 401.99L1307.43 520.77" stroke="hsl(228.5, 77.2%, 51.5%)" stroke-width="1.5"></path><path d="M1161.62 514.39L1161.62 514.39" stroke="hsl(228.5, 77.2%, 51.5%)" stroke-width="1.5"></path><path d="M1161.62 514.39L1307.43 520.77" stroke="hsl(228.5, 77.2%, 51.5%)" stroke-width="1.5"></path><path d="M1161.62 514.39L1267.19 403.63" stroke="hsl(228.5, 77.2%, 51.5%)" stroke-width="1.5"></path><path d="M1117.03 696.78L1117.03 696.78" stroke="hsl(228.5, 77.2%, 51.5%)" stroke-width="1.5"></path><path d="M1117.03 696.78L1161.62 514.39" stroke="hsl(228.5, 77.2%, 51.5%)" stroke-width="1.5"></path><path d="M1117.03 696.78L997.72 509.33" stroke="hsl(228.5, 77.2%, 51.5%)" stroke-width="1.5"></path><path d="M1300.53 -89.27L1300.53 -89.27" stroke="hsl(228.5, 77.2%, 51.5%)" stroke-width="1.5"></path><path d="M1300.53 -89.27L1291.8 187.63" stroke="hsl(228.5, 77.2%, 51.5%)" stroke-width="1.5"></path><path d="M1300.53 -89.27L1545.12 54.34" stroke="hsl(228.5, 77.2%, 51.5%)" stroke-width="1.5"></path><path d="M1300.53 -89.27L1389.88 233.49" stroke="hsl(228.5, 77.2%, 51.5%)" stroke-width="1.5"></path><path d="M1300.53 -89.27L1608.51 211.63" stroke="hsl(228.5, 77.2%, 51.5%)" stroke-width="1.5"></path><path d="M1291.8 187.63L1291.8 187.63" stroke="hsl(228.5, 77.2%, 51.5%)" stroke-width="1.5"></path><path d="M1291.8 187.63L1389.88 233.49" stroke="hsl(228.5, 77.2%, 51.5%)" stroke-width="1.5"></path><path d="M1267.19 403.63L1267.19 403.63" stroke="hsl(228.5, 77.2%, 51.5%)" stroke-width="1.5"></path><path d="M1267.19 403.63L1307.43 520.77" stroke="hsl(228.5, 77.2%, 51.5%)" stroke-width="1.5"></path><path d="M1267.19 403.63L1391.61 359.1" stroke="hsl(228.5, 77.2%, 51.5%)" stroke-width="1.5"></path><path d="M1267.19 403.63L1389.88 233.49" stroke="hsl(228.5, 77.2%, 51.5%)" stroke-width="1.5"></path><path d="M1307.43 520.77L1307.43 520.77" stroke="hsl(228.5, 77.2%, 51.5%)" stroke-width="1.5"></path><path d="M1307.43 520.77L1444.33 552.47" stroke="hsl(228.5, 77.2%, 51.5%)" stroke-width="1.5"></path><path d="M1307.43 520.77L1419.42 645.38" stroke="hsl(228.5, 77.2%, 51.5%)" stroke-width="1.5"></path><path d="M1307.43 520.77L1391.61 359.1" stroke="hsl(228.5, 77.2%, 51.5%)" stroke-width="1.5"></path><path d="M1389.88 233.49L1389.88 233.49" stroke="hsl(228.5, 77.2%, 51.5%)" stroke-width="1.5"></path><path d="M1389.88 233.49L1391.61 359.1" stroke="hsl(228.5, 77.2%, 51.5%)" stroke-width="1.5"></path><path d="M1389.88 233.49L1608.51 211.63" stroke="hsl(228.5, 77.2%, 51.5%)" stroke-width="1.5"></path><path d="M1391.61 359.1L1391.61 359.1" stroke="hsl(228.5, 77.2%, 51.5%)" stroke-width="1.5"></path><path d="M1391.61 359.1L1291.8 187.63" stroke="hsl(228.5, 77.2%, 51.5%)" stroke-width="1.5"></path><path d="M1444.33 552.47L1444.33 552.47" stroke="hsl(228.5, 77.2%, 51.5%)" stroke-width="1.5"></path><path d="M1444.33 552.47L1419.42 645.38" stroke="hsl(228.5, 77.2%, 51.5%)" stroke-width="1.5"></path><path d="M1444.33 552.47L1551.42 548.15" stroke="hsl(228.5, 77.2%, 51.5%)" stroke-width="1.5"></path><path d="M1444.33 552.47L1391.61 359.1" stroke="hsl(228.5, 77.2%, 51.5%)" stroke-width="1.5"></path><path d="M1444.33 552.47L1599.89 706.63" stroke="hsl(228.5, 77.2%, 51.5%)" stroke-width="1.5"></path><path d="M1444.33 552.47L1269.39 690.18" stroke="hsl(228.5, 77.2%, 51.5%)" stroke-width="1.5"></path><path d="M1419.42 645.38L1419.42 645.38" stroke="hsl(228.5, 77.2%, 51.5%)" stroke-width="1.5"></path><path d="M1419.42 645.38L1551.42 548.15" stroke="hsl(228.5, 77.2%, 51.5%)" stroke-width="1.5"></path><path d="M1419.42 645.38L1599.89 706.63" stroke="hsl(228.5, 77.2%, 51.5%)" stroke-width="1.5"></path><path d="M1419.42 645.38L1267.19 403.63" stroke="hsl(228.5, 77.2%, 51.5%)" stroke-width="1.5"></path><path d="M1545.12 54.34L1545.12 54.34" stroke="hsl(228.5, 77.2%, 51.5%)" stroke-width="1.5"></path><path d="M1545.12 54.34L1608.51 211.63" stroke="hsl(228.5, 77.2%, 51.5%)" stroke-width="1.5"></path><path d="M1545.12 54.34L1389.88 233.49" stroke="hsl(228.5, 77.2%, 51.5%)" stroke-width="1.5"></path><path d="M1608.51 211.63L1608.51 211.63" stroke="hsl(228.5, 77.2%, 51.5%)" stroke-width="1.5"></path><path d="M1551.42 548.15L1551.42 548.15" stroke="hsl(228.5, 77.2%, 51.5%)" stroke-width="1.5"></path><path d="M1551.42 548.15L1599.89 706.63" stroke="hsl(228.5, 77.2%, 51.5%)" stroke-width="1.5"></path><path d="M1551.42 548.15L1307.43 520.77" stroke="hsl(228.5, 77.2%, 51.5%)" stroke-width="1.5"></path><path d="M1551.42 548.15L1391.61 359.1" stroke="hsl(228.5, 77.2%, 51.5%)" stroke-width="1.5"></path><path d="M1551.42 548.15L1269.39 690.18" stroke="hsl(228.5, 77.2%, 51.5%)" stroke-width="1.5"></path><path d="M1599.89 706.63L1599.89 706.63" stroke="hsl(228.5, 77.2%, 51.5%)" stroke-width="1.5"></path><path d="M1599.89 706.63L1269.39 690.18" stroke="hsl(228.5, 77.2%, 51.5%)" stroke-width="1.5"></path><path d="M1599.89 706.63L1307.43 520.77" stroke="hsl(228.5, 77.2%, 51.5%)" stroke-width="1.5"></path><path d="M1599.89 706.63L1391.61 359.1" stroke="hsl(228.5, 77.2%, 51.5%)" stroke-width="1.5"></path><circle r="25" cx="681.2" cy="489.17" fill="url(#SvgjsRadialGradient1087)"></circle><circle r="25" cx="824.25" cy="557.22" fill="url(#SvgjsRadialGradient1087)"></circle><circle r="25" cx="836.58" cy="689.29" fill="url(#SvgjsRadialGradient1087)"></circle><circle r="25" cx="1005.44" cy="374.35" fill="url(#SvgjsRadialGradient1087)"></circle><circle r="25" cx="985.53" cy="672.42" fill="url(#SvgjsRadialGradient1087)"></circle><circle r="25" cx="1285.87" cy="74.81" fill="url(#SvgjsRadialGradient1087)"></circle><circle r="25" cx="1269.39" cy="690.18" fill="url(#SvgjsRadialGradient1087)"></circle><circle r="25" cx="1431.42" cy="60.45" fill="url(#SvgjsRadialGradient1087)"></circle><circle r="5" cx="98.22" cy="525.32" fill="#8b9ad9"></circle><circle r="5" cx="89.91" cy="694.97" fill="#8b9ad9"></circle><circle r="5" cx="218.24" cy="545" fill="#8b9ad9"></circle><circle r="5" cx="197.75" cy="655.79" fill="#8b9ad9"></circle><circle r="5" cx="389.98" cy="532.45" fill="#8b9ad9"></circle><circle r="5" cx="390.84" cy="671.78" fill="#8b9ad9"></circle><circle r="5" cx="514.08" cy="501.68" fill="#8b9ad9"></circle><circle r="5" cx="654.48" cy="644.71" fill="#8b9ad9"></circle><circle r="5" cx="817.17" cy="397.2" fill="#8b9ad9"></circle><circle r="5" cx="997.72" cy="509.33" fill="#8b9ad9"></circle><circle r="5" cx="1116.99" cy="401.99" fill="#8b9ad9"></circle><circle r="5" cx="1161.62" cy="514.39" fill="#8b9ad9"></circle><circle r="5" cx="1117.03" cy="696.78" fill="#8b9ad9"></circle><circle r="5" cx="1300.53" cy="-89.27" fill="#8b9ad9"></circle><circle r="5" cx="1291.8" cy="187.63" fill="#8b9ad9"></circle><circle r="5" cx="1267.19" cy="403.63" fill="#8b9ad9"></circle><circle r="5" cx="1307.43" cy="520.77" fill="#8b9ad9"></circle><circle r="5" cx="1389.88" cy="233.49" fill="#8b9ad9"></circle><circle r="5" cx="1391.61" cy="359.1" fill="#8b9ad9"></circle><circle r="5" cx="1444.33" cy="552.47" fill="#8b9ad9"></circle><circle r="5" cx="1419.42" cy="645.38" fill="#8b9ad9"></circle><circle r="5" cx="1545.12" cy="54.34" fill="#8b9ad9"></circle><circle r="5" cx="1608.51" cy="211.63" fill="#8b9ad9"></circle><circle r="5" cx="1551.42" cy="548.15" fill="#8b9ad9"></circle><circle r="5" cx="1599.89" cy="706.63" fill="#8b9ad9"></circle></g><defs><mask id="SvgjsMask1086"><rect width="1440" height="560" fill="#ffffff"></rect></mask><radialGradient id="SvgjsRadialGradient1087"><stop stop-color="#ffffff" offset="0.1"></stop><stop stop-color="#1735b3" offset="0.2"></stop><stop stop-color="rgba(23, 53, 179, 0)" offset="1"></stop></radialGradient></defs></svg>